<svg width="801" height="801" viewBox="0 0 801 801" fill="none" xmlns="http://www.w3.org/2000/svg">
<rect x="600.111" y="200" width="400" height="400" rx="100" transform="rotate(90 600.111 200)" fill="#ABB8D1"/>
<path d="M520.409 200.298C564.592 200.298 600.409 236.115 600.409 280.298V400.298H450.409C422.795 400.298 400.409 377.912 400.409 350.298V200.298H520.409Z" fill="#DADFEA"/>
<path d="M401.005 200.298V300.818C401.005 356.047 356.234 400.818 301.005 400.818H199.889V300.298C199.889 245.069 244.66 200.298 299.889 200.298H401.005Z" fill="#DADFEA"/>
<path d="M302.121 200.298C357.35 200.298 402.121 246.037 402.121 301.265V301.265C402.121 356.494 357.35 402.233 302.121 402.233H199.889V300.298C199.889 245.07 244.66 200.298 299.889 200.298H302.121Z" fill="#ABB8D1"/>
<path d="M600.26 399.553V500.074C600.26 555.302 555.489 600.073 500.26 600.073H399.144V499.553C399.144 444.325 443.915 399.553 499.144 399.553H600.26Z" fill="#DADFEA"/>
<path d="M500.26 397.99C555.489 397.99 600.26 442.761 600.26 497.99V500.073C600.26 555.302 555.489 600.073 500.26 600.073H397.879V497.99C397.879 442.761 442.65 397.99 497.879 397.99H500.26Z" fill="#ABB8D1"/>
<path d="M280.111 200C456.842 200 600.111 343.269 600.111 520V520C600.111 564.183 564.294 600 520.111 600H300.111C244.883 600 200.111 555.228 200.111 500V280C200.111 235.817 235.928 200 280.111 200V200Z" fill="#ABB8D1"/>
<path d="M200.298 274.953V274.953C380.042 274.953 526.572 420.665 526.572 600.409V600.409H200.298V274.953Z" fill="#7794CE"/>
</svg>
